PathFileType	4	(X/Y/Z)	Patient4_TMGait_0pt3_03_left_25.trc.trc
DataRate	CameraRate	NumFrames	NumMarkers	Units	OrigDataRate	OrigDataStartFrame	OrigNumFrames
54.054054054054	54.054054054054	4	33	mm	54.054054054054	71	       141
Frame#	Time	Sacral			L.Shoulder			Chest			R.Shoulder			Neck			R.ASIS			L.ASIS			R.Thigh.Superior			R.Thigh.Lateral			R.Thigh.Inferior			R.Patella			L.Thigh.Superior			L.Thigh.Lateral			L.Thigh.Inferior			L.Patella			L.Shank.Superior			L.Shank.Lateral			L.Shank.Inferior			R.Shank.Superior			R.Shank.Lateral			R.Shank.Inferior			R.Heel			R.Midfoot.Superior			R.Midfoot.Lateral			R.Toe			L.Heel			L.Midfoot.Lateral			L.Midfoot.Superior			L.Toe			L.Elbow			L.Wrist			R.Elbow			R.Wrist			
		X1	Y1	Z1	X2	Y2	Z2	X3	Y3	Z3	X4	Y4	Z4	X5	Y5	Z5	X6	Y6	Z6	X7	Y7	Z7	X8	Y8	Z8	X9	Y9	Z9	X10	Y10	Z10	X11	Y11	Z11	X12	Y12	Z12	X13	Y13	Z13	X14	Y14	Z14	X15	Y15	Z15	X16	Y16	Z16	X17	Y17	Z17	X18	Y18	Z18	X19	Y19	Z19	X20	Y20	Z20	X21	Y21	Z21	X22	Y22	Z22	X23	Y23	Z23	X24	Y24	Z24	X25	Y25	Z25	X26	Y26	Z26	X27	Y27	Z27	X28	Y28	Z28	X29	Y29	Z29	X30	Y30	Z30	X31	Y31	Z31	X32	Y32	Z32	X33	Y33	Z33	

71	45.155000000000	672.320648260797	1015.320100131480	435.253905565249	913.435915366752	1435.173198839493	293.262839592700	963.861478758255	1366.634055879862	476.067726678387	839.698718109005	1445.270888607674	620.297447026765	849.498109084030	1498.243244997353	441.767724045846	870.800756024586	949.276227381984	600.845694157399	913.737085473612	959.672618367658	329.851025596366	940.477083665330	764.012949826353	576.823551597280	879.526294225802	648.134817023124	644.123648671764	967.645173666893	601.749133052222	569.755530106370	990.659931134923	513.416255132704	591.500559812145	928.795120145633	735.630809792136	365.388918796470	838.497742743880	627.488783486431	291.210517601991	901.745324095387	544.112351162764	368.270486884957	892.450792955050	475.360601774130	377.034787276797	858.806875147592	406.364763596008	365.079958066335	764.581698366238	301.109239948275	304.801680343946	791.640247032258	186.678443877308	381.521096698469	957.647957073613	425.655969072683	601.889974454689	880.191401109136	325.650937974311	664.651422315194	934.025706111173	226.837789209723	617.717837431413	810.286504802630	51.386337623194	589.584392990155	977.429367920096	111.160852021560	632.539972034171	892.784255585619	42.787163873095	665.456806907923	1098.549509186769	67.568763911701	663.404484319478	646.266529379846	39.090406344737	413.676207942227	724.439932264244	35.672921454473	337.019212510396	807.696444247915	94.821340263405	369.241372683915	936.509124815821	39.963608634382	346.014127185158	1052.604226331897	1142.355183898353	140.628656934320	1308.405804196945	1104.481212654873	174.238889061364	661.835776505356	1139.926255763730	692.821815766843	619.529156870807	882.294802322042	705.840836614628	
72	45.173500000000	671.847101384832	1013.846943287061	438.154201821116	911.621433956073	1434.417228599379	297.196280370890	961.922353267761	1366.111106759792	480.079555341506	837.525929684000	1444.793283987776	624.093919996001	847.304884514415	1497.371289327030	445.540749265209	869.940340190932	947.782034283752	604.263318762811	913.632759324146	959.089592819969	333.260696770436	938.321926046755	761.390589811156	581.295241962553	875.410144582500	645.530940631948	647.126767769174	964.267126416003	599.417316941191	573.501770400729	986.478179969801	512.523022723334	593.691402423084	926.973532429627	734.490049203724	368.149337903782	835.931927553896	627.266413516545	292.882764455889	898.052713250435	543.054055500758	369.639157479578	887.877818791093	474.460207044471	378.125776651659	854.248351706634	405.726458731741	365.988464558539	759.603538416300	300.983204324522	305.417677095986	786.303770291944	186.311435144748	381.904701089763	956.513691471907	424.202212154895	603.996401610409	882.376174566070	321.536978241371	666.987965909281	939.075730912210	224.415470618691	619.403881824771	820.173380798081	46.252541977133	591.678464048277	986.252633961326	109.444153126690	633.484830113192	903.302139220276	39.264269363428	666.978968407649	1108.633237839609	68.231277046140	663.333813420873	640.661699977258	38.915890281679	413.703809415163	718.799927944117	35.608709734061	337.005887539995	802.015478100800	94.770471637834	369.361196535082	930.860086893016	40.020768225925	346.064911897800	1054.124556314474	1143.630311609509	144.819180532627	1310.904323500460	1115.445546994711	178.985266790473	658.566116807104	1140.450960036744	694.771679710300	616.063155894150	882.499994566172	706.172983306029	
73	45.192000000000	671.570362778688	1012.096436849468	441.420999621857	909.481865603932	1433.541657034201	301.443484925954	959.972693652845	1365.469817359663	484.333405089656	835.496604081443	1444.054322814880	628.356574352634	844.995448910734	1496.332125723139	449.732397892338	869.492597819546	946.063560735759	607.814860699419	913.705089555338	958.433006253442	336.796432728958	936.919849636747	758.772980716775	585.749791435382	872.105411811785	642.755484397786	649.876282365147	961.929451913078	597.109812222879	577.122187069174	983.010489910535	511.181692149176	595.688962127633	925.611598836687	733.310293606763	370.961139856758	833.755513180002	626.939662929065	294.810041445221	894.840044702883	541.945954950280	371.189042203012	883.850021065083	473.454727729363	379.418705601507	850.079732709428	404.971407607820	367.092791426020	754.845761758871	300.897032817344	306.194230387164	781.087772381830	185.893240278021	382.356578411687	955.355702799110	422.387814910127	605.851864572854	883.560941704321	317.954579919217	668.823310396055	942.077082920639	222.144225157444	620.593776665837	826.336697270621	42.930153341744	592.984735794261	991.750768666371	107.846612688664	634.074376506234	909.689397557164	36.989036172755	667.991888202725	1114.631571906714	67.789567666656	663.281061283653	635.055832535698	38.736659243294	413.742540371418	713.159711153837	35.543212221266	337.015321891932	796.330770668353	94.731909190617	369.493332551200	925.205766666305	40.072737108081	346.111186220720	1054.868338111748	1144.433563298767	149.345051230643	1312.295050921576	1125.411927655297	183.764975828558	656.707064285492	1139.927130753164	697.537176289878	614.621733686323	881.593711491550	707.446546091640	
74	45.210500000000	671.515641573029	1010.205235217848	445.017646200085	907.100602826065	1432.658939197341	306.005927878645	958.041764925290	1364.824177091555	488.846716310093	833.588930473794	1443.163067935903	633.060584626217	842.591644865853	1495.227671127404	454.329436833654	869.467935948071	944.269003944323	611.508141160312	913.981792800400	957.804181871547	340.487220999186	936.306566730985	756.305585322127	590.050893688437	869.737386454757	639.985540475180	652.349262080880	960.629556324091	594.943147231225	580.498825262231	980.356019671846	509.524571669553	597.451773498510	924.660915436369	732.129188657638	373.835803727611	831.869166042965	626.577298325573	296.995924562162	891.988619817843	540.835176185256	372.925151227683	880.252858722391	472.394222183566	380.913556642004	846.200770412606	404.167317081119	368.388624993395	750.228432295661	300.896222797984	307.136845923423	775.954814390049	185.465969522822	382.872773670624	954.282067964477	420.314587804412	607.419507600449	883.911135500693	314.885427081203	670.209933073100	943.227167929900	219.973844519780	621.288030498389	828.980971316124	41.068916164177	593.598732609664	994.174688080986	106.306570510854	634.302339195619	912.260299626987	35.710917880287	668.555050116439	1116.976109099484	66.354237215592	663.201054351695	629.446545767386	38.564534420496	413.794622457053	707.520836763529	35.480979884229	337.054911302196	790.647582335351	94.713927407311	369.634089263898	919.550189433428	40.113409169036	346.149892941023	1054.837943913289	1144.843467328100	154.157066780905	1312.626125023268	1134.354463666172	188.562117066652	656.104453513715	1138.523600109459	701.115573108213	614.997136475362	879.770675199029	709.731903872014	
